<svg xmlns="http://www.w3.org/2000/svg" viewBox="-95 -95 190 190" font-family="Helvetica, Arial, sans-serif" text-rendering="geometricPrecision"><g class="wheel-outer"><circle r="90" fill="#fff" stroke="#000" stroke-width="0.5"/><circle r="65" fill="none" stroke="#ccc" stroke-width="0.18" stroke-dasharray="1.4 1.4"/><path d="M 7.83 -64.53 L 10.85 -89.34 M 23.05 -60.78 L 31.91 -84.15 M 36.92 -53.49 L 51.13 -74.07 M 48.65 -43.10 L 67.37 -59.68 M 57.55 -30.21 L 79.69 -41.83 M 63.11 -15.56 L 87.38 -21.54 M 65.00 -0.00 L 90.00 -0.00 M 63.11 15.56 L 87.38 21.54 M 57.55 30.21 L 79.69 41.83 M 48.65 43.10 L 67.37 59.68 M 36.92 53.49 L 51.13 74.07 M 23.05 60.78 L 31.91 84.15 M 7.83 64.53 L 10.85 89.34 M -7.83 64.53 L -10.85 89.34 M -23.05 60.78 L -31.91 84.15 M -36.92 53.49 L -51.13 74.07 M -48.65 43.10 L -67.37 59.68 M -57.55 30.21 L -79.69 41.83 M -63.11 15.56 L -87.38 21.54 M -65.00 0.00 L -90.00 0.00 M -63.11 -15.56 L -87.38 -21.54 M -57.55 -30.21 L -79.69 -41.83 M -48.65 -43.10 L -67.37 -59.68 M -36.92 -53.49 L -51.13 -74.07 M -23.05 -60.78 L -31.91 -84.15 M -7.83 -64.53 L -10.85 -89.34" stroke="#bbb" stroke-width="0.18" fill="none"/><g transform="rotate(0.000)"><text x="0" y="-78" text-anchor="middle" dominant-baseline="central" font-size="7.00" font-weight="bold">A</text></g><g transform="rotate(13.846)"><text x="0" y="-78" text-anchor="middle" dominant-baseline="central" font-size="7.00" font-weight="bold">B</text></g><g transform="rotate(27.692)"><text x="0" y="-78" text-anchor="middle" dominant-baseline="central" font-size="7.00" font-weight="bold">C</text></g><g transform="rotate(41.538)"><text x="0" y="-78" text-anchor="middle" dominant-baseline="central" font-size="7.00" font-weight="bold">D</text></g><g transform="rotate(55.385)"><text x="0" y="-78" text-anchor="middle" dominant-baseline="central" font-size="7.00" font-weight="bold">E</text></g><g transform="rotate(69.231)"><text x="0" y="-78" text-anchor="middle" dominant-baseline="central" font-size="7.00" font-weight="bold">F</text></g><g transform="rotate(83.077)"><text x="0" y="-78" text-anchor="middle" dominant-baseline="central" font-size="7.00" font-weight="bold">G</text></g><g transform="rotate(96.923)"><text x="0" y="-78" text-anchor="middle" dominant-baseline="central" font-size="7.00" font-weight="bold">H</text></g><g transform="rotate(110.769)"><text x="0" y="-78" text-anchor="middle" dominant-baseline="central" font-size="7.00" font-weight="bold">I</text></g><g transform="rotate(124.615)"><text x="0" y="-78" text-anchor="middle" dominant-baseline="central" font-size="7.00" font-weight="bold">J</text></g><g transform="rotate(138.462)"><text x="0" y="-78" text-anchor="middle" dominant-baseline="central" font-size="7.00" font-weight="bold">K</text></g><g transform="rotate(152.308)"><text x="0" y="-78" text-anchor="middle" dominant-baseline="central" font-size="7.00" font-weight="bold">L</text></g><g transform="rotate(166.154)"><text x="0" y="-78" text-anchor="middle" dominant-baseline="central" font-size="7.00" font-weight="bold">M</text></g><g transform="rotate(180.000)"><text x="0" y="-78" text-anchor="middle" dominant-baseline="central" font-size="7.00" font-weight="bold">N</text></g><g transform="rotate(193.846)"><text x="0" y="-78" text-anchor="middle" dominant-baseline="central" font-size="7.00" font-weight="bold">O</text></g><g transform="rotate(207.692)"><text x="0" y="-78" text-anchor="middle" dominant-baseline="central" font-size="7.00" font-weight="bold">P</text></g><g transform="rotate(221.538)"><text x="0" y="-78" text-anchor="middle" dominant-baseline="central" font-size="7.00" font-weight="bold">Q</text></g><g transform="rotate(235.385)"><text x="0" y="-78" text-anchor="middle" dominant-baseline="central" font-size="7.00" font-weight="bold">R</text></g><g transform="rotate(249.231)"><text x="0" y="-78" text-anchor="middle" dominant-baseline="central" font-size="7.00" font-weight="bold">S</text></g><g transform="rotate(263.077)"><text x="0" y="-78" text-anchor="middle" dominant-baseline="central" font-size="7.00" font-weight="bold">T</text></g><g transform="rotate(276.923)"><text x="0" y="-78" text-anchor="middle" dominant-baseline="central" font-size="7.00" font-weight="bold">U</text></g><g transform="rotate(290.769)"><text x="0" y="-78" text-anchor="middle" dominant-baseline="central" font-size="7.00" font-weight="bold">V</text></g><g transform="rotate(304.615)"><text x="0" y="-78" text-anchor="middle" dominant-baseline="central" font-size="7.00" font-weight="bold">W</text></g><g transform="rotate(318.462)"><text x="0" y="-78" text-anchor="middle" dominant-baseline="central" font-size="7.00" font-weight="bold">X</text></g><g transform="rotate(332.308)"><text x="0" y="-78" text-anchor="middle" dominant-baseline="central" font-size="7.00" font-weight="bold">Y</text></g><g transform="rotate(346.154)"><text x="0" y="-78" text-anchor="middle" dominant-baseline="central" font-size="7.00" font-weight="bold">Z</text></g><g transform="rotate(0.000)"><text x="0" y="-69.5" text-anchor="middle" dominant-baseline="central" font-size="2.80" fill="#777">1</text></g><g transform="rotate(13.846)"><text x="0" y="-69.5" text-anchor="middle" dominant-baseline="central" font-size="2.80" fill="#777">2</text></g><g transform="rotate(27.692)"><text x="0" y="-69.5" text-anchor="middle" dominant-baseline="central" font-size="2.80" fill="#777">3</text></g><g transform="rotate(41.538)"><text x="0" y="-69.5" text-anchor="middle" dominant-baseline="central" font-size="2.80" fill="#777">4</text></g><g transform="rotate(55.385)"><text x="0" y="-69.5" text-anchor="middle" dominant-baseline="central" font-size="2.80" fill="#777">5</text></g><g transform="rotate(69.231)"><text x="0" y="-69.5" text-anchor="middle" dominant-baseline="central" font-size="2.80" fill="#777">6</text></g><g transform="rotate(83.077)"><text x="0" y="-69.5" text-anchor="middle" dominant-baseline="central" font-size="2.80" fill="#777">7</text></g><g transform="rotate(96.923)"><text x="0" y="-69.5" text-anchor="middle" dominant-baseline="central" font-size="2.80" fill="#777">8</text></g><g transform="rotate(110.769)"><text x="0" y="-69.5" text-anchor="middle" dominant-baseline="central" font-size="2.80" fill="#777">9</text></g><g transform="rotate(124.615)"><text x="0" y="-69.5" text-anchor="middle" dominant-baseline="central" font-size="2.80" fill="#777">10</text></g><g transform="rotate(138.462)"><text x="0" y="-69.5" text-anchor="middle" dominant-baseline="central" font-size="2.80" fill="#777">11</text></g><g transform="rotate(152.308)"><text x="0" y="-69.5" text-anchor="middle" dominant-baseline="central" font-size="2.80" fill="#777">12</text></g><g transform="rotate(166.154)"><text x="0" y="-69.5" text-anchor="middle" dominant-baseline="central" font-size="2.80" fill="#777">13</text></g><g transform="rotate(180.000)"><text x="0" y="-69.5" text-anchor="middle" dominant-baseline="central" font-size="2.80" fill="#777">14</text></g><g transform="rotate(193.846)"><text x="0" y="-69.5" text-anchor="middle" dominant-baseline="central" font-size="2.80" fill="#777">15</text></g><g transform="rotate(207.692)"><text x="0" y="-69.5" text-anchor="middle" dominant-baseline="central" font-size="2.80" fill="#777">16</text></g><g transform="rotate(221.538)"><text x="0" y="-69.5" text-anchor="middle" dominant-baseline="central" font-size="2.80" fill="#777">17</text></g><g transform="rotate(235.385)"><text x="0" y="-69.5" text-anchor="middle" dominant-baseline="central" font-size="2.80" fill="#777">18</text></g><g transform="rotate(249.231)"><text x="0" y="-69.5" text-anchor="middle" dominant-baseline="central" font-size="2.80" fill="#777">19</text></g><g transform="rotate(263.077)"><text x="0" y="-69.5" text-anchor="middle" dominant-baseline="central" font-size="2.80" fill="#777">20</text></g><g transform="rotate(276.923)"><text x="0" y="-69.5" text-anchor="middle" dominant-baseline="central" font-size="2.80" fill="#777">21</text></g><g transform="rotate(290.769)"><text x="0" y="-69.5" text-anchor="middle" dominant-baseline="central" font-size="2.80" fill="#777">22</text></g><g transform="rotate(304.615)"><text x="0" y="-69.5" text-anchor="middle" dominant-baseline="central" font-size="2.80" fill="#777">23</text></g><g transform="rotate(318.462)"><text x="0" y="-69.5" text-anchor="middle" dominant-baseline="central" font-size="2.80" fill="#777">24</text></g><g transform="rotate(332.308)"><text x="0" y="-69.5" text-anchor="middle" dominant-baseline="central" font-size="2.80" fill="#777">25</text></g><g transform="rotate(346.154)"><text x="0" y="-69.5" text-anchor="middle" dominant-baseline="central" font-size="2.80" fill="#777">26</text></g><g transform="rotate(0.000)"><text x="0" y="-41" text-anchor="middle" dominant-baseline="central" font-size="3.90" font-weight="bold">0</text></g><g transform="rotate(13.846)"><text x="0" y="-41" text-anchor="middle" dominant-baseline="central" font-size="3.90" font-weight="bold">1</text></g><g transform="rotate(27.692)"><text x="0" y="-41" text-anchor="middle" dominant-baseline="central" font-size="3.90" font-weight="bold">2</text></g><g transform="rotate(41.538)"><text x="0" y="-41" text-anchor="middle" dominant-baseline="central" font-size="3.90" font-weight="bold">3</text></g><g transform="rotate(55.385)"><text x="0" y="-41" text-anchor="middle" dominant-baseline="central" font-size="3.90" font-weight="bold">4</text></g><g transform="rotate(69.231)"><text x="0" y="-41" text-anchor="middle" dominant-baseline="central" font-size="3.90" font-weight="bold">5</text></g><g transform="rotate(83.077)"><text x="0" y="-41" text-anchor="middle" dominant-baseline="central" font-size="3.90" font-weight="bold">6</text></g><g transform="rotate(96.923)"><text x="0" y="-41" text-anchor="middle" dominant-baseline="central" font-size="3.90" font-weight="bold">7</text></g><g transform="rotate(110.769)"><text x="0" y="-41" text-anchor="middle" dominant-baseline="central" font-size="3.90" font-weight="bold">8</text></g><g transform="rotate(124.615)"><text x="0" y="-41" text-anchor="middle" dominant-baseline="central" font-size="3.90" font-weight="bold">9</text></g><g transform="rotate(138.462)"><text x="0" y="-41" text-anchor="middle" dominant-baseline="central" font-size="3.90" font-weight="bold">10</text></g><g transform="rotate(152.308)"><text x="0" y="-41" text-anchor="middle" dominant-baseline="central" font-size="3.90" font-weight="bold">11</text></g><g transform="rotate(166.154)"><text x="0" y="-41" text-anchor="middle" dominant-baseline="central" font-size="3.90" font-weight="bold">12</text></g><g transform="rotate(180.000)"><text x="0" y="-41" text-anchor="middle" dominant-baseline="central" font-size="3.90" font-weight="bold">13</text></g><g transform="rotate(193.846)"><text x="0" y="-41" text-anchor="middle" dominant-baseline="central" font-size="3.90" font-weight="bold">14</text></g><g transform="rotate(207.692)"><text x="0" y="-41" text-anchor="middle" dominant-baseline="central" font-size="3.90" font-weight="bold">15</text></g><g transform="rotate(221.538)"><text x="0" y="-41" text-anchor="middle" dominant-baseline="central" font-size="3.90" font-weight="bold">16</text></g><g transform="rotate(235.385)"><text x="0" y="-41" text-anchor="middle" dominant-baseline="central" font-size="3.90" font-weight="bold">17</text></g><g transform="rotate(249.231)"><text x="0" y="-41" text-anchor="middle" dominant-baseline="central" font-size="3.90" font-weight="bold">18</text></g><g transform="rotate(263.077)"><text x="0" y="-41" text-anchor="middle" dominant-baseline="central" font-size="3.90" font-weight="bold">19</text></g><g transform="rotate(276.923)"><text x="0" y="-41" text-anchor="middle" dominant-baseline="central" font-size="3.90" font-weight="bold">20</text></g><g transform="rotate(290.769)"><text x="0" y="-41" text-anchor="middle" dominant-baseline="central" font-size="3.90" font-weight="bold">21</text></g><g transform="rotate(304.615)"><text x="0" y="-41" text-anchor="middle" dominant-baseline="central" font-size="3.90" font-weight="bold">22</text></g><g transform="rotate(318.462)"><text x="0" y="-41" text-anchor="middle" dominant-baseline="central" font-size="3.90" font-weight="bold">23</text></g><g transform="rotate(332.308)"><text x="0" y="-41" text-anchor="middle" dominant-baseline="central" font-size="3.90" font-weight="bold">24</text></g><g transform="rotate(346.154)"><text x="0" y="-41" text-anchor="middle" dominant-baseline="central" font-size="3.90" font-weight="bold">25</text></g><path d="M -4 0 H 4 M 0 -4 V 4" stroke="#888" stroke-width="0.18" fill="none"/></g><g class="wheel-inner" transform="rotate(41.53846153846154)"><path d="M 0 -65 A 65 65 0 1 1 0 65 A 65 65 0 1 1 0 -65 Z M -4.41 -45.79 A 46.00 46.00 0 0 1 4.41 -45.79 L 3.45 -35.83 A 36.00 36.00 0 0 0 -3.45 -35.83 Z" fill-rule="evenodd" fill="#fff" stroke="#000" stroke-width="0.5" style="filter: drop-shadow(0 0.6px 1.2px rgba(0,0,0,0.35))"/><circle r="49" fill="none" stroke="#bbb" stroke-width="0.18"/><path d="M 5.91 -48.64 L 7.83 -64.53 M 17.38 -45.82 L 23.05 -60.78 M 27.84 -40.33 L 36.92 -53.49 M 36.68 -32.49 L 48.65 -43.10 M 43.39 -22.77 L 57.55 -30.21 M 47.58 -11.73 L 63.11 -15.56 M 49.00 -0.00 L 65.00 -0.00 M 47.58 11.73 L 63.11 15.56 M 43.39 22.77 L 57.55 30.21 M 36.68 32.49 L 48.65 43.10 M 27.84 40.33 L 36.92 53.49 M 17.38 45.82 L 23.05 60.78 M 5.91 48.64 L 7.83 64.53 M -5.91 48.64 L -7.83 64.53 M -17.38 45.82 L -23.05 60.78 M -27.84 40.33 L -36.92 53.49 M -36.68 32.49 L -48.65 43.10 M -43.39 22.77 L -57.55 30.21 M -47.58 11.73 L -63.11 15.56 M -49.00 0.00 L -65.00 0.00 M -47.58 -11.73 L -63.11 -15.56 M -43.39 -22.77 L -57.55 -30.21 M -36.68 -32.49 L -48.65 -43.10 M -27.84 -40.33 L -36.92 -53.49 M -17.38 -45.82 L -23.05 -60.78 M -5.91 -48.64 L -7.83 -64.53" stroke="#bbb" stroke-width="0.18" fill="none"/><g transform="rotate(0.000)"><text x="0" y="-57" text-anchor="middle" dominant-baseline="central" font-size="7.00" font-weight="bold">A</text></g><g transform="rotate(13.846)"><text x="0" y="-57" text-anchor="middle" dominant-baseline="central" font-size="7.00" font-weight="bold">B</text></g><g transform="rotate(27.692)"><text x="0" y="-57" text-anchor="middle" dominant-baseline="central" font-size="7.00" font-weight="bold">C</text></g><g transform="rotate(41.538)"><text x="0" y="-57" text-anchor="middle" dominant-baseline="central" font-size="7.00" font-weight="bold">D</text></g><g transform="rotate(55.385)"><text x="0" y="-57" text-anchor="middle" dominant-baseline="central" font-size="7.00" font-weight="bold">E</text></g><g transform="rotate(69.231)"><text x="0" y="-57" text-anchor="middle" dominant-baseline="central" font-size="7.00" font-weight="bold">F</text></g><g transform="rotate(83.077)"><text x="0" y="-57" text-anchor="middle" dominant-baseline="central" font-size="7.00" font-weight="bold">G</text></g><g transform="rotate(96.923)"><text x="0" y="-57" text-anchor="middle" dominant-baseline="central" font-size="7.00" font-weight="bold">H</text></g><g transform="rotate(110.769)"><text x="0" y="-57" text-anchor="middle" dominant-baseline="central" font-size="7.00" font-weight="bold">I</text></g><g transform="rotate(124.615)"><text x="0" y="-57" text-anchor="middle" dominant-baseline="central" font-size="7.00" font-weight="bold">J</text></g><g transform="rotate(138.462)"><text x="0" y="-57" text-anchor="middle" dominant-baseline="central" font-size="7.00" font-weight="bold">K</text></g><g transform="rotate(152.308)"><text x="0" y="-57" text-anchor="middle" dominant-baseline="central" font-size="7.00" font-weight="bold">L</text></g><g transform="rotate(166.154)"><text x="0" y="-57" text-anchor="middle" dominant-baseline="central" font-size="7.00" font-weight="bold">M</text></g><g transform="rotate(180.000)"><text x="0" y="-57" text-anchor="middle" dominant-baseline="central" font-size="7.00" font-weight="bold">N</text></g><g transform="rotate(193.846)"><text x="0" y="-57" text-anchor="middle" dominant-baseline="central" font-size="7.00" font-weight="bold">O</text></g><g transform="rotate(207.692)"><text x="0" y="-57" text-anchor="middle" dominant-baseline="central" font-size="7.00" font-weight="bold">P</text></g><g transform="rotate(221.538)"><text x="0" y="-57" text-anchor="middle" dominant-baseline="central" font-size="7.00" font-weight="bold">Q</text></g><g transform="rotate(235.385)"><text x="0" y="-57" text-anchor="middle" dominant-baseline="central" font-size="7.00" font-weight="bold">R</text></g><g transform="rotate(249.231)"><text x="0" y="-57" text-anchor="middle" dominant-baseline="central" font-size="7.00" font-weight="bold">S</text></g><g transform="rotate(263.077)"><text x="0" y="-57" text-anchor="middle" dominant-baseline="central" font-size="7.00" font-weight="bold">T</text></g><g transform="rotate(276.923)"><text x="0" y="-57" text-anchor="middle" dominant-baseline="central" font-size="7.00" font-weight="bold">U</text></g><g transform="rotate(290.769)"><text x="0" y="-57" text-anchor="middle" dominant-baseline="central" font-size="7.00" font-weight="bold">V</text></g><g transform="rotate(304.615)"><text x="0" y="-57" text-anchor="middle" dominant-baseline="central" font-size="7.00" font-weight="bold">W</text></g><g transform="rotate(318.462)"><text x="0" y="-57" text-anchor="middle" dominant-baseline="central" font-size="7.00" font-weight="bold">X</text></g><g transform="rotate(332.308)"><text x="0" y="-57" text-anchor="middle" dominant-baseline="central" font-size="7.00" font-weight="bold">Y</text></g><g transform="rotate(346.154)"><text x="0" y="-57" text-anchor="middle" dominant-baseline="central" font-size="7.00" font-weight="bold">Z</text></g><rect x="-4.50" y="-61.00" width="9.00" height="8.00" rx="0.8" fill="none" stroke="#000" stroke-width="0.35"/><text x="0" y="-20" text-anchor="middle" dominant-baseline="central" font-size="6.50" font-weight="bold">Cipher Disk</text><text x="0" y="20" text-anchor="middle" dominant-baseline="central" font-size="2.6" fill="#999">ciphers.jpillora.com</text><path d="M -4 0 H 4 M 0 -4 V 4" stroke="#888" stroke-width="0.18" fill="none"/></g><circle r="1.1" fill="#444"/></svg>